# xmcd CD database file
#
# Track frame offsets:
#	150
#	2963
#	25765
#	49289
#	69010
#	90454
#	105629
#	124536
#	143839
#	161259
#	178362
#	196056
#	211805
#	232638
#	251795
#
# Disc length: 3587 seconds
#
# Revision: 0
# Processed by: cddbd v1.5.2PL0 Copyright (c) Steve Scherf et al.
# Submitted via: CDex 1.75
#
DISCID=ba0e010f
DTITLE=Erroll Garner - The Complete Concert by the Sea - CD1
DYEAR=1955
DGENRE=Jazz
TTITLE0=Announcer: Jimmy Lyons [The Complete Concert by the Sea]
TTITLE1=Night and Day [The Complete Concert by the Sea]
TTITLE2=Spring Is Here [The Complete Concert by the Sea]
TTITLE3=I'll Remember April [The Complete Concert by the Sea]
TTITLE4=The Nearness of You [The Complete Concert by the Sea]
TTITLE5=Where or When [The Complete Concert by the Sea]
TTITLE6=Sweet and Lovely [The Complete Concert by the Sea]
TTITLE7=Lullaby of Birdland [The Complete Concert by the Sea]
TTITLE8=Mambo Carmel [The Complete Concert by the Sea]
TTITLE9=Teach Me Tonight [The Complete Concert by the Sea]
TTITLE10=Will You Still Be Mine [The Complete Concert by the Sea]
TTITLE11=I Cover the Waterfront [The Complete Concert by the Sea]
TTITLE12=Bernie's Tune [The Complete Concert by the Sea]
TTITLE13=How Could You Do a Thing Like That to Me? [The Complete Concert by the Sea]
TTITLE14=It's All Right with Me [The Complete Concert by the Sea]
EXTD=YEAR: 1955
EXTT0=
EXTT1=
EXTT2=
EXTT3=
EXTT4=
EXTT5=
EXTT6=
EXTT7=
EXTT8=
EXTT9=
EXTT10=
EXTT11=
EXTT12=
EXTT13=
EXTT14=
PLAYORDER=
